<?xml version="1.0" encoding="UTF-8" standalone="no"?>
<!-- Created with Inkscape (http://www.inkscape.org/) -->

<svg
   xmlns:dc="http://purl.org/dc/elements/1.1/"
   xmlns:cc="http://creativecommons.org/ns#"
   xmlns:rdf="http://www.w3.org/1999/02/22-rdf-syntax-ns#"
   xmlns:svg="http://www.w3.org/2000/svg"
   xmlns="http://www.w3.org/2000/svg"
   xmlns:xlink="http://www.w3.org/1999/xlink"
   xmlns:sodipodi="http://sodipodi.sourceforge.net/DTD/sodipodi-0.dtd"
   xmlns:inkscape="http://www.inkscape.org/namespaces/inkscape"
   width="900"
   height="900"
   id="svg2"
   version="1.1"
   inkscape:version="0.48.3.1 r9886"
   sodipodi:docname="headphone.svg"
   inkscape:export-filename="/home/hb205/Masaüstü/headphone.png"
   inkscape:export-xdpi="300"
   inkscape:export-ydpi="300">
  <defs
     id="defs4">
    <linearGradient
       inkscape:collect="always"
       id="linearGradient4050">
      <stop
         style="stop-color:#cccccc;stop-opacity:1;"
         offset="0"
         id="stop4052" />
      <stop
         style="stop-color:#cccccc;stop-opacity:0;"
         offset="1"
         id="stop4054" />
    </linearGradient>
    <linearGradient
       inkscape:collect="always"
       id="linearGradient4042">
      <stop
         style="stop-color:#ffffff;stop-opacity:1;"
         offset="0"
         id="stop4044" />
      <stop
         style="stop-color:#ffffff;stop-opacity:0;"
         offset="1"
         id="stop4046" />
    </linearGradient>
    <linearGradient
       inkscape:collect="always"
       id="linearGradient4034">
      <stop
         style="stop-color:#ffffff;stop-opacity:1;"
         offset="0"
         id="stop4036" />
      <stop
         style="stop-color:#ffffff;stop-opacity:0;"
         offset="1"
         id="stop4038" />
    </linearGradient>
    <linearGradient
       inkscape:collect="always"
       id="linearGradient4019">
      <stop
         style="stop-color:#ffffff;stop-opacity:1;"
         offset="0"
         id="stop4021" />
      <stop
         style="stop-color:#ffffff;stop-opacity:0;"
         offset="1"
         id="stop4023" />
    </linearGradient>
    <linearGradient
       inkscape:collect="always"
       id="linearGradient4011">
      <stop
         style="stop-color:#ffffff;stop-opacity:1;"
         offset="0"
         id="stop4013" />
      <stop
         style="stop-color:#ffffff;stop-opacity:0;"
         offset="1"
         id="stop4015" />
    </linearGradient>
    <linearGradient
       inkscape:collect="always"
       id="linearGradient4000">
      <stop
         style="stop-color:#ffffff;stop-opacity:1;"
         offset="0"
         id="stop4003" />
      <stop
         style="stop-color:#ffffff;stop-opacity:0;"
         offset="1"
         id="stop4005" />
    </linearGradient>
    <linearGradient
       inkscape:collect="always"
       id="linearGradient4515">
      <stop
         style="stop-color:#1a1a1a;stop-opacity:1;"
         offset="0"
         id="stop4517" />
      <stop
         style="stop-color:#1a1a1a;stop-opacity:0;"
         offset="1"
         id="stop4519" />
    </linearGradient>
    <linearGradient
       inkscape:collect="always"
       id="linearGradient4507">
      <stop
         style="stop-color:#333333;stop-opacity:1;"
         offset="0"
         id="stop4509" />
      <stop
         style="stop-color:#333333;stop-opacity:0;"
         offset="1"
         id="stop4511" />
    </linearGradient>
    <linearGradient
       inkscape:collect="always"
       id="linearGradient4135">
      <stop
         style="stop-color:#cccccc;stop-opacity:1;"
         offset="0"
         id="stop4137" />
      <stop
         style="stop-color:#cccccc;stop-opacity:0;"
         offset="1"
         id="stop4139" />
    </linearGradient>
    <linearGradient
       inkscape:collect="always"
       id="linearGradient4127">
      <stop
         style="stop-color:#000000;stop-opacity:1;"
         offset="0"
         id="stop4129" />
      <stop
         style="stop-color:#000000;stop-opacity:0;"
         offset="1"
         id="stop4131" />
    </linearGradient>
    <linearGradient
       inkscape:collect="always"
       id="linearGradient4117">
      <stop
         style="stop-color:#ffffff;stop-opacity:1;"
         offset="0"
         id="stop4119" />
      <stop
         style="stop-color:#ffffff;stop-opacity:0;"
         offset="1"
         id="stop4121" />
    </linearGradient>
    <linearGradient
       inkscape:collect="always"
       id="linearGradient4107">
      <stop
         style="stop-color:#4d4d4d;stop-opacity:1;"
         offset="0"
         id="stop4109" />
      <stop
         style="stop-color:#4d4d4d;stop-opacity:0;"
         offset="1"
         id="stop4111" />
    </linearGradient>
    <linearGradient
       inkscape:collect="always"
       id="linearGradient4093">
      <stop
         style="stop-color:#000000;stop-opacity:1;"
         offset="0"
         id="stop4095" />
      <stop
         style="stop-color:#000000;stop-opacity:0;"
         offset="1"
         id="stop4097" />
    </linearGradient>
    <linearGradient
       inkscape:collect="always"
       id="linearGradient4073">
      <stop
         style="stop-color:#000000;stop-opacity:1;"
         offset="0"
         id="stop4075" />
      <stop
         style="stop-color:#000000;stop-opacity:0;"
         offset="1"
         id="stop4077" />
    </linearGradient>
    <linearGradient
       inkscape:collect="always"
       id="linearGradient4063">
      <stop
         style="stop-color:#000000;stop-opacity:1;"
         offset="0"
         id="stop4065" />
      <stop
         style="stop-color:#000000;stop-opacity:0;"
         offset="1"
         id="stop4067" />
    </linearGradient>
    <linearGradient
       inkscape:collect="always"
       id="linearGradient4053">
      <stop
         style="stop-color:#4d4d4d;stop-opacity:1;"
         offset="0"
         id="stop4055" />
      <stop
         style="stop-color:#4d4d4d;stop-opacity:0;"
         offset="1"
         id="stop4057" />
    </linearGradient>
    <linearGradient
       inkscape:collect="always"
       id="linearGradient4008">
      <stop
         style="stop-color:#e6e6e6;stop-opacity:1;"
         offset="0"
         id="stop4010" />
      <stop
         style="stop-color:#e6e6e6;stop-opacity:0;"
         offset="1"
         id="stop4012" />
    </linearGradient>
    <linearGradient
       inkscape:collect="always"
       id="linearGradient3998">
      <stop
         style="stop-color:#000000;stop-opacity:1;"
         offset="0"
         id="stop4000" />
      <stop
         style="stop-color:#000000;stop-opacity:0;"
         offset="1"
         id="stop4002" />
    </linearGradient>
    <linearGradient
       inkscape:collect="always"
       id="linearGradient3988">
      <stop
         style="stop-color:#cccccc;stop-opacity:1;"
         offset="0"
         id="stop3990" />
      <stop
         style="stop-color:#cccccc;stop-opacity:0;"
         offset="1"
         id="stop3992" />
    </linearGradient>
    <linearGradient
       inkscape:collect="always"
       id="linearGradient3971">
      <stop
         style="stop-color:#000000;stop-opacity:1;"
         offset="0"
         id="stop3973" />
      <stop
         style="stop-color:#000000;stop-opacity:0;"
         offset="1"
         id="stop3975" />
    </linearGradient>
    <linearGradient
       id="linearGradient3908">
      <stop
         style="stop-color:#2b1100;stop-opacity:1;"
         offset="0"
         id="stop3910" />
      <stop
         id="stop3918"
         offset="0.25"
         style="stop-color:#652c06;stop-opacity:1;" />
      <stop
         style="stop-color:#f06304;stop-opacity:1;"
         offset="0.39028636"
         id="stop3920" />
      <stop
         id="stop3916"
         offset="0.70341885"
         style="stop-color:#823705;stop-opacity:0" />
      <stop
         style="stop-color:#2b1100;stop-opacity:1;"
         offset="1"
         id="stop3912" />
    </linearGradient>
    <linearGradient
       inkscape:collect="always"
       id="linearGradient3900">
      <stop
         style="stop-color:#cccccc;stop-opacity:1;"
         offset="0"
         id="stop3902" />
      <stop
         style="stop-color:#cccccc;stop-opacity:0;"
         offset="1"
         id="stop3904" />
    </linearGradient>
    <linearGradient
       id="linearGradient3886">
      <stop
         style="stop-color:#666666;stop-opacity:1;"
         offset="0"
         id="stop3888" />
      <stop
         style="stop-color:#151515;stop-opacity:1;"
         offset="1"
         id="stop3890" />
    </linearGradient>
    <linearGradient
       id="linearGradient3872">
      <stop
         style="stop-color:#000000;stop-opacity:1;"
         offset="0"
         id="stop3874" />
      <stop
         id="stop3884"
         offset="0.63508576"
         style="stop-color:#292929;stop-opacity:1;" />
      <stop
         id="stop3882"
         offset="0.79076439"
         style="stop-color:#515151;stop-opacity:1;" />
      <stop
         id="stop3880"
         offset="0.97428709"
         style="stop-color:#202020;stop-opacity:1;" />
      <stop
         style="stop-color:#000000;stop-opacity:1;"
         offset="1"
         id="stop3876" />
    </linearGradient>
    <linearGradient
       id="linearGradient3858">
      <stop
         style="stop-color:#999999;stop-opacity:1;"
         offset="0"
         id="stop3860" />
      <stop
         id="stop3868"
         offset="0.33703828"
         style="stop-color:#434343;stop-opacity:1;" />
      <stop
         style="stop-color:#d6d6d6;stop-opacity:1;"
         offset="0.59090644"
         id="stop3870" />
      <stop
         id="stop3866"
         offset="0.88261271"
         style="stop-color:#515151;stop-opacity:1;" />
      <stop
         style="stop-color:#999999;stop-opacity:1;"
         offset="1"
         id="stop3862" />
    </linearGradient>
    <linearGradient
       inkscape:collect="always"
       id="linearGradient3850">
      <stop
         style="stop-color:#e6e6e6;stop-opacity:1;"
         offset="0"
         id="stop3852" />
      <stop
         style="stop-color:#e6e6e6;stop-opacity:0;"
         offset="1"
         id="stop3854" />
    </linearGradient>
    <linearGradient
       id="linearGradient3838">
      <stop
         style="stop-color:#666666;stop-opacity:1;"
         offset="0"
         id="stop3840" />
      <stop
         id="stop3846"
         offset="0.89137423"
         style="stop-color:#666666;stop-opacity:1;" />
      <stop
         style="stop-color:#323232;stop-opacity:1;"
         offset="1"
         id="stop3842" />
    </linearGradient>
    <linearGradient
       inkscape:collect="always"
       id="linearGradient3816">
      <stop
         style="stop-color:#cccccc;stop-opacity:1;"
         offset="0"
         id="stop3818" />
      <stop
         style="stop-color:#cccccc;stop-opacity:0;"
         offset="1"
         id="stop3820" />
    </linearGradient>
    <filter
       inkscape:collect="always"
       id="filter3805"
       x="-0.12815991"
       width="1.2563198"
       y="-0.032693885"
       height="1.0653878"
       color-interpolation-filters="sRGB">
      <feGaussianBlur
         inkscape:collect="always"
         stdDeviation="0.47678584"
         id="feGaussianBlur3807" />
    </filter>
    <filter
       inkscape:collect="always"
       id="filter3809"
       x="-0.11866666"
       width="1.2373333"
       y="-0.02604877"
       height="1.0520976"
       color-interpolation-filters="sRGB">
      <feGaussianBlur
         inkscape:collect="always"
         stdDeviation="0.47678584"
         id="feGaussianBlur3811" />
    </filter>
    <filter
       inkscape:collect="always"
       id="filter3834"
       color-interpolation-filters="sRGB">
      <feGaussianBlur
         inkscape:collect="always"
         stdDeviation="3.531439"
         id="feGaussianBlur3836" />
    </filter>
    <filter
       inkscape:collect="always"
       id="filter3981"
       color-interpolation-filters="sRGB">
      <feGaussianBlur
         inkscape:collect="always"
         stdDeviation="8.3187286"
         id="feGaussianBlur3983" />
    </filter>
    <radialGradient
       inkscape:collect="always"
       xlink:href="#linearGradient3858"
       id="radialGradient4576"
       gradientUnits="userSpaceOnUse"
       gradientTransform="matrix(0.98334382,0.18175512,-0.2647577,1.4324099,544.90842,-861.90273)"
       cx="-136.31509"
       cy="2063.9456"
       fx="-136.31509"
       fy="2063.9456"
       r="199.64343" />
    <radialGradient
       inkscape:collect="always"
       xlink:href="#linearGradient3838"
       id="radialGradient4578"
       gradientUnits="userSpaceOnUse"
       gradientTransform="matrix(1.573648,-0.98093807,0.67123941,1.0768208,-1148.1135,-371.73931)"
       cx="-249.74556"
       cy="1933.7307"
       fx="-249.74556"
       fy="1933.7307"
       r="124.51638" />
    <linearGradient
       inkscape:collect="always"
       xlink:href="#linearGradient3816"
       id="linearGradient4580"
       gradientUnits="userSpaceOnUse"
       x1="-273.57141"
       y1="1768.7908"
       x2="-195.71429"
       y2="1778.7908" />
    <linearGradient
       inkscape:collect="always"
       xlink:href="#linearGradient3900"
       id="linearGradient4582"
       gradientUnits="userSpaceOnUse"
       x1="-253.54831"
       y1="1671.5857"
       x2="-182.83762"
       y2="1679.6669" />
    <linearGradient
       inkscape:collect="always"
       xlink:href="#linearGradient3850"
       id="linearGradient4584"
       gradientUnits="userSpaceOnUse"
       x1="-364.28571"
       y1="1953.7908"
       x2="-317.14285"
       y2="1970.9336" />
    <radialGradient
       inkscape:collect="always"
       xlink:href="#linearGradient3872"
       id="radialGradient4586"
       gradientUnits="userSpaceOnUse"
       gradientTransform="matrix(1.0341053,0.11307431,-0.18304824,1.6740421,381.03382,-1378.6858)"
       cx="-100.66408"
       cy="2063.3818"
       fx="-100.66408"
       fy="2063.3818"
       r="186.51347" />
    <linearGradient
       inkscape:collect="always"
       xlink:href="#linearGradient4507"
       id="linearGradient4588"
       gradientUnits="userSpaceOnUse"
       x1="-137.14287"
       y1="1463.7908"
       x2="94.285713"
       y2="1589.505" />
    <linearGradient
       inkscape:collect="always"
       xlink:href="#linearGradient4515"
       id="linearGradient4590"
       gradientUnits="userSpaceOnUse"
       x1="542.85718"
       y1="1478.0765"
       x2="205.71428"
       y2="1572.3622" />
    <radialGradient
       inkscape:collect="always"
       xlink:href="#linearGradient4063"
       id="radialGradient4592"
       gradientUnits="userSpaceOnUse"
       gradientTransform="matrix(4.7776094,0.3538345,-0.41760942,5.6387229,1184.5005,-9526.4062)"
       cx="-73.713326"
       cy="2059.8955"
       fx="-73.713326"
       fy="2059.8955"
       r="186.51347" />
    <radialGradient
       inkscape:collect="always"
       xlink:href="#linearGradient3886"
       id="radialGradient4594"
       gradientUnits="userSpaceOnUse"
       gradientTransform="matrix(2.1845937,0.00469887,-0.01272092,5.914188,132.05826,-10185.873)"
       cx="-89.220444"
       cy="2072.8333"
       fx="-89.220444"
       fy="2072.8333"
       r="59.402702" />
    <radialGradient
       inkscape:collect="always"
       xlink:href="#linearGradient4073"
       id="radialGradient4596"
       gradientUnits="userSpaceOnUse"
       gradientTransform="matrix(7.833005,0.74192001,-0.78037502,8.2390018,2331.3321,-14961.212)"
       cx="-107.15368"
       cy="2077.4849"
       fx="-107.15368"
       fy="2077.4849"
       r="59.402702" />
    <linearGradient
       inkscape:collect="always"
       xlink:href="#linearGradient4107"
       id="linearGradient4598"
       gradientUnits="userSpaceOnUse"
       x1="131.31982"
       y1="2306.9717"
       x2="369.71582"
       y2="2296.8701" />
    <linearGradient
       inkscape:collect="always"
       xlink:href="#linearGradient4093"
       id="linearGradient4600"
       gradientUnits="userSpaceOnUse"
       x1="280"
       y1="2283.7908"
       x2="425.71429"
       y2="2275.2192" />
    <radialGradient
       inkscape:collect="always"
       xlink:href="#linearGradient3971"
       id="radialGradient4602"
       gradientUnits="userSpaceOnUse"
       gradientTransform="matrix(3.2728514,0.33924663,-0.36135377,3.4861292,-241.32612,-5628.7331)"
       cx="509.50204"
       cy="2185.594"
       fx="509.50204"
       fy="2185.594"
       r="225.30687" />
    <radialGradient
       inkscape:collect="always"
       xlink:href="#linearGradient3998"
       id="radialGradient4604"
       gradientUnits="userSpaceOnUse"
       gradientTransform="matrix(1.3811602,0.04692248,-0.02313346,0.6809322,-174.82213,556.46695)"
       cx="581.04187"
       cy="1840.5764"
       fx="581.04187"
       fy="1840.5764"
       r="203.2932" />
    <linearGradient
       inkscape:collect="always"
       xlink:href="#linearGradient4008"
       id="linearGradient4606"
       gradientUnits="userSpaceOnUse"
       x1="311.42856"
       y1="2020.9336"
       x2="365.71429"
       y2="2043.7908" />
    <linearGradient
       inkscape:collect="always"
       xlink:href="#linearGradient4117"
       id="linearGradient4608"
       gradientUnits="userSpaceOnUse"
       gradientTransform="matrix(0.91882451,0,0,1,40.587744,0)"
       x1="151.51904"
       y1="2341.3167"
       x2="507.72354"
       y2="2317.073" />
    <linearGradient
       inkscape:collect="always"
       xlink:href="#linearGradient3988"
       id="linearGradient4610"
       gradientUnits="userSpaceOnUse"
       x1="441.42859"
       y1="1840.9336"
       x2="478.57144"
       y2="1850.9336" />
    <linearGradient
       inkscape:collect="always"
       xlink:href="#linearGradient4135"
       id="linearGradient4612"
       gradientUnits="userSpaceOnUse"
       x1="383.85797"
       y1="2262.5249"
       x2="531.34021"
       y2="2252.4233" />
    <linearGradient
       inkscape:collect="always"
       xlink:href="#linearGradient4127"
       id="linearGradient4614"
       gradientUnits="userSpaceOnUse"
       gradientTransform="translate(-4.0406134,6.0609148)"
       x1="739.43164"
       y1="2104.9412"
       x2="513.15747"
       y2="2143.3269" />
    <linearGradient
       inkscape:collect="always"
       xlink:href="#linearGradient4053"
       id="linearGradient4616"
       gradientUnits="userSpaceOnUse"
       x1="546.31555"
       y1="2274.7324"
       x2="647.77435"
       y2="2213.9519" />
    <linearGradient
       inkscape:collect="always"
       xlink:href="#linearGradient4127"
       id="linearGradient3144"
       gradientUnits="userSpaceOnUse"
       gradientTransform="matrix(0.73593456,0,0,0.73593456,335.81828,-810.93449)"
       x1="739.43164"
       y1="2104.9412"
       x2="513.15747"
       y2="2143.3269" />
    <linearGradient
       inkscape:collect="always"
       xlink:href="#linearGradient4135"
       id="linearGradient3147"
       gradientUnits="userSpaceOnUse"
       x1="383.85797"
       y1="2262.5249"
       x2="531.34021"
       y2="2252.4233"
       gradientTransform="matrix(0.73593456,0,0,0.73593456,338.79191,-815.39493)" />
    <linearGradient
       inkscape:collect="always"
       xlink:href="#linearGradient4117"
       id="linearGradient3157"
       gradientUnits="userSpaceOnUse"
       gradientTransform="matrix(0.67619471,0,0,0.73593456,368.66183,-815.39493)"
       x1="151.51904"
       y1="2341.3167"
       x2="749.73181"
       y2="2034.3149" />
    <linearGradient
       inkscape:collect="always"
       xlink:href="#linearGradient4008"
       id="linearGradient3160"
       gradientUnits="userSpaceOnUse"
       x1="311.42856"
       y1="2020.9336"
       x2="365.71429"
       y2="2043.7908"
       gradientTransform="matrix(0.73593456,0,0,0.73593456,338.79191,-815.39493)" />
    <radialGradient
       inkscape:collect="always"
       xlink:href="#linearGradient3998"
       id="radialGradient3163"
       gradientUnits="userSpaceOnUse"
       gradientTransform="matrix(1.0164435,0.03453187,-0.01702471,0.50112154,210.13426,-405.87167)"
       cx="581.04187"
       cy="1840.5764"
       fx="581.04187"
       fy="1840.5764"
       r="203.2932" />
    <radialGradient
       inkscape:collect="always"
       xlink:href="#linearGradient3971"
       id="radialGradient3168"
       gradientUnits="userSpaceOnUse"
       gradientTransform="matrix(2.4086045,0.24966332,-0.26593273,2.565563,161.19168,-4957.7741)"
       cx="509.50204"
       cy="2185.594"
       fx="509.50204"
       fy="2185.594"
       r="225.30687" />
    <linearGradient
       inkscape:collect="always"
       xlink:href="#linearGradient4093"
       id="linearGradient3171"
       gradientUnits="userSpaceOnUse"
       x1="280"
       y1="2283.7908"
       x2="425.71429"
       y2="2275.2192"
       gradientTransform="matrix(0.73593456,0,0,0.73593456,338.79191,-815.39493)" />
    <linearGradient
       inkscape:collect="always"
       xlink:href="#linearGradient4107"
       id="linearGradient3175"
       gradientUnits="userSpaceOnUse"
       x1="131.31982"
       y1="2306.9717"
       x2="369.71582"
       y2="2296.8701"
       gradientTransform="matrix(0.73593456,0,0,0.73593456,338.79191,-815.39493)" />
    <radialGradient
       inkscape:collect="always"
       xlink:href="#linearGradient3886"
       id="radialGradient3181"
       gradientUnits="userSpaceOnUse"
       gradientTransform="matrix(1.607718,0.00345806,-0.00936176,4.3524553,435.97815,-8311.5309)"
       cx="-89.220444"
       cy="2072.8333"
       fx="-89.220444"
       fy="2072.8333"
       r="59.402702" />
    <radialGradient
       inkscape:collect="always"
       xlink:href="#linearGradient4063"
       id="radialGradient3184"
       gradientUnits="userSpaceOnUse"
       gradientTransform="matrix(3.5160079,0.26039904,-0.3073332,4.1497311,1210.5068,-7826.2065)"
       cx="-73.713326"
       cy="2059.8955"
       fx="-73.713326"
       fy="2059.8955"
       r="186.51347" />
    <linearGradient
       inkscape:collect="always"
       xlink:href="#linearGradient4515"
       id="linearGradient3193"
       gradientUnits="userSpaceOnUse"
       x1="542.85718"
       y1="1478.0765"
       x2="205.71428"
       y2="1572.3622"
       gradientTransform="matrix(0.73593456,0,0,0.73593456,338.79191,-815.39493)" />
    <linearGradient
       inkscape:collect="always"
       xlink:href="#linearGradient4507"
       id="linearGradient3196"
       gradientUnits="userSpaceOnUse"
       x1="-137.14287"
       y1="1463.7908"
       x2="94.285713"
       y2="1589.505"
       gradientTransform="matrix(0.73593456,0,0,0.73593456,338.79191,-815.39493)" />
    <radialGradient
       inkscape:collect="always"
       xlink:href="#linearGradient3872"
       id="radialGradient3203"
       gradientUnits="userSpaceOnUse"
       gradientTransform="matrix(0.76103383,0.08321529,-0.13471153,1.2319854,619.20787,-1830.0175)"
       cx="-100.66408"
       cy="2063.3818"
       fx="-100.66408"
       fy="2063.3818"
       r="186.51347" />
    <linearGradient
       inkscape:collect="always"
       xlink:href="#linearGradient3850"
       id="linearGradient3206"
       gradientUnits="userSpaceOnUse"
       x1="-364.28571"
       y1="1953.7908"
       x2="-317.14285"
       y2="1970.9336"
       gradientTransform="matrix(0.73593456,0,0,0.73593456,338.79191,-815.39493)" />
    <linearGradient
       inkscape:collect="always"
       xlink:href="#linearGradient3900"
       id="linearGradient3210"
       gradientUnits="userSpaceOnUse"
       x1="-253.54831"
       y1="1671.5857"
       x2="-182.83762"
       y2="1679.6669"
       gradientTransform="matrix(0.73593456,0,0,0.73593456,338.79191,-815.39493)" />
    <radialGradient
       inkscape:collect="always"
       xlink:href="#linearGradient3838"
       id="radialGradient3219"
       gradientUnits="userSpaceOnUse"
       gradientTransform="matrix(1.1581019,-0.72190623,0.49398828,0.79246964,-506.14449,-1088.9707)"
       cx="-249.74556"
       cy="1933.7307"
       fx="-249.74556"
       fy="1933.7307"
       r="124.51638" />
    <radialGradient
       inkscape:collect="always"
       xlink:href="#linearGradient3858"
       id="radialGradient3223"
       gradientUnits="userSpaceOnUse"
       gradientTransform="matrix(0.7236767,0.13375987,-0.19484434,1.0541599,739.80885,-1449.6989)"
       cx="-136.31509"
       cy="2063.9456"
       fx="-136.31509"
       fy="2063.9456"
       r="199.64343" />
    <radialGradient
       inkscape:collect="always"
       xlink:href="#linearGradient4000"
       id="radialGradient4007"
       cx="313.32828"
       cy="153.69044"
       fx="313.32828"
       fy="153.69044"
       r="282.62974"
       gradientTransform="matrix(0.47807265,0.01005536,-0.00714824,0.33985638,166.83792,171.91612)"
       gradientUnits="userSpaceOnUse" />
    <radialGradient
       inkscape:collect="always"
       xlink:href="#linearGradient4011"
       id="radialGradient4017"
       cx="179.50807"
       cy="413.19031"
       fx="179.50807"
       fy="413.19031"
       r="16.558525"
       gradientTransform="matrix(2.0980892,0.3660299,-0.39349466,2.2555177,-34.527701,-584.47304)"
       gradientUnits="userSpaceOnUse" />
    <radialGradient
       inkscape:collect="always"
       xlink:href="#linearGradient4019"
       id="radialGradient4025"
       cx="170.83784"
       cy="481.27704"
       fx="170.83784"
       fy="481.27704"
       r="17.754425"
       gradientTransform="matrix(0.99721467,0.07458492,-0.22758327,3.0428318,110.00644,-995.90994)"
       gradientUnits="userSpaceOnUse" />
    <radialGradient
       inkscape:collect="always"
       xlink:href="#linearGradient4000"
       id="radialGradient4030"
       gradientUnits="userSpaceOnUse"
       gradientTransform="matrix(0.47807265,0.01005536,-0.00714824,0.33985638,166.83792,171.91612)"
       cx="907.54095"
       cy="326.33615"
       fx="907.54095"
       fy="326.33615"
       r="282.62974" />
    <radialGradient
       inkscape:collect="always"
       xlink:href="#linearGradient4034"
       id="radialGradient4040"
       cx="671.8242"
       cy="452.7196"
       fx="671.8242"
       fy="452.7196"
       r="23.778792"
       gradientTransform="matrix(1,0,0,2.0797057,0,-488.80392)"
       gradientUnits="userSpaceOnUse" />
    <radialGradient
       inkscape:collect="always"
       xlink:href="#linearGradient4042"
       id="radialGradient4048"
       cx="659.64086"
       cy="545.30913"
       fx="659.64086"
       fy="545.30913"
       r="27.969988"
       gradientTransform="matrix(1,0,0,1.5699036,0,-310.77366)"
       gradientUnits="userSpaceOnUse" />
    <linearGradient
       inkscape:collect="always"
       xlink:href="#linearGradient4050"
       id="linearGradient4056"
       x1="323.24884"
       y1="721.03217"
       x2="258.59906"
       y2="727.09308"
       gradientUnits="userSpaceOnUse" />
  </defs>
  <sodipodi:namedview
     id="base"
     pagecolor="#ffffff"
     bordercolor="#666666"
     borderopacity="1.0"
     inkscape:pageopacity="0.0"
     inkscape:pageshadow="2"
     inkscape:zoom="0.49497475"
     inkscape:cx="592.74334"
     inkscape:cy="474.98991"
     inkscape:document-units="px"
     inkscape:current-layer="layer1"
     showgrid="false"
     inkscape:window-width="1362"
     inkscape:window-height="708"
     inkscape:window-x="0"
     inkscape:window-y="0"
     inkscape:window-maximized="1" />
  <metadata
     id="metadata7">
    <rdf:RDF>
      <cc:Work
         rdf:about="">
        <dc:format>image/svg+xml</dc:format>
        <dc:type
           rdf:resource="http://purl.org/dc/dcmitype/StillImage" />
        <dc:title></dc:title>
      </cc:Work>
    </rdf:RDF>
  </metadata>
  <g
     inkscape:label="Layer 1"
     inkscape:groupmode="layer"
     id="layer1"
     transform="translate(0,-152.36218)">
    <g
       id="g4060">
      <path
         style="fill:#b3b3b3;fill-opacity:1;stroke:none"
         d="m 182.40582,359.63344 19.97536,15.77005 81.47847,5.78231 c 34.92058,-100.43122 113.47089,-144.30544 201.38327,-176.04357 77.22419,33.44808 124.59157,106.25283 158.34552,197.00262 l 31.96646,-15.61153 72.1104,4.46043 c -6.49898,-3.94241 -14.85541,-7.14173 -11.8945,-14.86809 C 676.66626,238.65419 576.44541,150.00829 390.83034,162.76807 c -88.71382,25.01184 -154.62368,83.53152 -194.77242,179.90429 -1.97316,9.94961 -5.75298,16.88808 -13.6521,16.96108 z"
         id="path3998"
         inkscape:connector-curvature="0"
         sodipodi:nodetypes="ccccccccccc" />
      <path
         style="fill:#000000;stroke:none"
         d="m 546.94564,590.96998 c -78.36062,85.77428 -125.35386,312.25549 -34.19668,420.76792 47.143,43.8895 132.52779,37.8526 182.87791,11.8945 l 59.4725,-438.60965 C 671.35362,511.609 607.14961,540.7894 546.94564,590.96998 z"
         id="path4081"
         inkscape:connector-curvature="0"
         sodipodi:nodetypes="ccccc" />
      <g
         transform="matrix(0.73593456,0,0,0.73593456,-138.51422,-762.82818)"
         id="g4029">
        <g
           id="g4031">
          <path
             sodipodi:nodetypes="ccccc"
             style="fill:#333333;stroke:none"
             d="m 445.33985,1649.21 2.6628,13.2843 8.5863,-6.0609 -0.6066,-12.9884 z"
             id="path4033"
             inkscape:connector-curvature="0" />
          <path
             sodipodi:nodetypes="ccccc"
             style="fill:#999999;stroke:none"
             d="m 454.55378,1642.0164 2.54025,13.9119 72.2259,4.5457 -3.29043,-14.2226 z"
             id="path4035"
             inkscape:connector-curvature="0" />
        </g>
      </g>
      <path
         sodipodi:nodetypes="ccc"
         inkscape:connector-curvature="0"
         id="path2983"
         d="M 178.98897,890.55768 C 73.827231,901.36554 24.730269,530.61238 228.40173,500.51236 432.07716,446.95296 449.53812,921.04377 178.98897,890.55768 z"
         style="fill:url(#radialGradient3223);fill-opacity:1;stroke:none" />
      <path
         transform="matrix(0.7293305,0,0,0.72961926,336.64694,-804.53859)"
         style="fill:#1a1a1a;stroke:none;filter:url(#filter3834)"
         d="m -93.612425,1784.2536 c -37.188325,-3.1034 -75.069945,-11.2333 -107.076175,23.2335 -84.29753,78.1586 -89.75071,152.0165 -102.53048,226.2741 -12.09372,8.2499 -24.63672,13.8042 -39.39595,6.061 -0.74442,-24.5499 11.82751,-145.0277 89.90358,-234.8605 22.21177,-21.4116 20.0607,-46.8836 18.68782,-72.2259 l 33.33503,-5.0508 c 34.7741,-0.9119 68.42807,2.0966 100.51018,10.6066 z"
         id="path3824"
         inkscape:connector-curvature="0"
         sodipodi:nodetypes="ccccccccc" />
      <path
         sodipodi:nodetypes="ccccccccc"
         inkscape:connector-curvature="0"
         id="path2993"
         d="m 267.79662,495.07064 c -27.36817,-2.2839 -55.24656,-8.26697 -78.80105,17.09834 -62.03747,57.51961 -66.05065,111.87419 -75.45573,166.52293 -8.90018,6.07138 -18.131012,10.15899 -28.992839,4.4605 -0.547845,-18.06712 8.704273,-106.7309 66.163149,-172.84196 16.34641,-15.75754 14.76336,-34.50326 13.75301,-53.15354 l 24.53241,-3.71706 c 25.59146,-0.6711 50.35858,1.54296 73.96891,7.80577 z"
         style="fill:url(#radialGradient3219);fill-opacity:1;stroke:none" />
      <path
         transform="matrix(0.73593456,0,0,0.73593456,338.79191,-815.39493)"
         inkscape:connector-curvature="0"
         id="path2997"
         d="m -192.5,1734.505 9.64286,-0.3571 -0.35715,43.5714 -8.57142,0.3572 z"
         style="fill:#1a1a1a;stroke:none;filter:url(#filter3809)" />
      <path
         transform="matrix(0.73593456,0,0,0.73593456,338.79191,-815.39493)"
         inkscape:connector-curvature="0"
         id="path2999"
         d="m -117.85714,1740.9336 -0.35715,35 8.92858,0 -0.35715,-34.6428 z"
         style="fill:#1a1a1a;stroke:none;filter:url(#filter3805)" />
      <path
         sodipodi:nodetypes="ccccccc"
         inkscape:connector-curvature="0"
         id="path3001"
         d="m 178.20047,374.87781 c 24.70638,0.1148 49.41275,1.7329 74.11913,6.04519 10.97011,5.08148 19.0805,10.16288 24.44354,15.24437 -6.52576,18.55813 -11.87245,37.54502 -10.77619,58.87476 l -81.47847,-4.73103 -21.55236,0.78848 c 0.0839,-24.61819 2.00852,-49.527 15.24435,-76.22177 z"
         style="fill:#323232;fill-opacity:1;stroke:#000000;stroke-width:0.73593456px;stroke-linecap:butt;stroke-linejoin:miter;stroke-opacity:1" />
      <path
         id="path3003"
         d="m 178.01321,375.27816 c -13.06097,26.5467 -14.98018,51.32665 -15.06366,75.82429 l 21.54908,-0.78193 c -0.97649,-19.6942 0.78448,-39.54669 11.56797,-59.93267 0,0 -10.84291,-9.0701 -18.05339,-15.10969 z"
         style="fill:url(#linearGradient3210);fill-opacity:1;stroke:none"
         inkscape:connector-curvature="0" />
      <path
         sodipodi:nodetypes="ccccccc"
         inkscape:connector-curvature="0"
         id="path3023"
         d="m 648.04888,422.58852 c 6.54205,-7.6942 14.67503,-14.59299 27.13432,-19.32859 l 82.51809,4.83215 c 15.9496,30.3576 16.11777,61.59198 14.49641,92.9258 -26.76262,2.92563 -53.52524,5.03195 -80.28786,1.11508 -11.75087,0.31256 -22.93302,-1.08108 -32.70987,-6.69067 3.84786,-26.8062 -3.33009,-49.93714 -11.15109,-72.85377 z"
         style="fill:#767676;fill-opacity:1;stroke:none" />
      <path
         style="fill:url(#linearGradient3206);fill-opacity:1;stroke:none"
         d="m 267.79662,495.07064 c -27.36817,-2.2839 -55.24656,-8.26697 -78.80105,17.09834 -62.03747,57.51961 -66.05065,111.87419 -75.45573,166.52293 -8.90018,6.07138 -18.131012,10.15899 -28.992839,4.4605 -0.547845,-18.06712 8.704273,-106.7309 66.163149,-172.84196 16.34641,-15.75754 14.76336,-34.50326 13.75301,-53.15354 l 24.53241,-3.71706 c 25.59146,-0.6711 50.35858,1.54296 73.96891,7.80577 z"
         id="path3848"
         inkscape:connector-curvature="0"
         sodipodi:nodetypes="ccccccccc" />
      <path
         sodipodi:nodetypes="ccccc"
         inkscape:connector-curvature="0"
         id="path2989"
         d="M 378.74264,556.23313 C 309.79339,453.92734 207.55213,487.66515 182.14298,543.61708 c -55.73136,92.79988 -83.143623,192.37999 -27.33471,312.24651 32.27811,60.25729 107.07361,85.93213 178.72696,21.02668 82.02549,-76.25761 73.61574,-276.80611 45.20741,-320.65714 z"
         style="fill:url(#radialGradient3203);fill-opacity:1;stroke:none" />
      <path
         id="path3005"
         d="m 178.19719,374.88723 c -0.10341,0.20856 -0.19694,0.41264 -0.29897,0.62098 l 17.9154,14.60367 80.88381,6.25544 c 0.024,-0.0684 0.045,-0.13865 0.069,-0.20702 -5.36304,-5.08141 -13.47672,-10.16613 -24.44683,-15.24761 -24.70638,-4.31228 -49.41603,-5.91066 -74.12241,-6.02546 z"
         style="fill:#b3b3b3;stroke:none"
         inkscape:connector-curvature="0" />
      <path
         inkscape:connector-curvature="0"
         id="path3007"
         d="m 207.50644,365.94143 -8.14785,19.18692 66.8912,5.91375 4.73101,-21.421 z"
         style="fill:#333333;stroke:none" />
      <path
         sodipodi:nodetypes="ccccccccccc"
         inkscape:connector-curvature="0"
         id="path3011"
         d="m 182.40582,359.63344 19.97536,15.77005 81.47847,5.78231 c 34.92058,-100.43122 113.47089,-144.30544 201.38327,-176.04357 77.22419,33.44808 124.59157,106.25283 158.34552,197.00262 l 31.96646,-15.61153 72.1104,4.46043 c -6.49898,-3.94241 -14.85541,-7.14173 -11.8945,-14.86809 C 676.66626,238.65419 576.44541,150.00829 390.83034,162.76807 c -88.71382,25.01184 -154.62368,83.53152 -194.77242,179.90429 -1.97316,9.94961 -5.75298,16.88808 -13.6521,16.96108 z"
         style="fill:url(#radialGradient4007);fill-opacity:1;stroke:none" />
      <path
         inkscape:connector-curvature="0"
         id="path3009"
         d="m 207.76928,366.20431 -8.14785,19.0554 -3.94251,-3.54823 8.27926,-21.42092 z"
         style="fill:#666666;stroke:none" />
      <path
         id="path3013"
         d="M 412.47736,193.50232 C 306.14984,194.35733 247.08649,273.65163 200.75818,374.1053 l 0.78193,0.62091 52.36635,4.32361 29.94334,2.13885 C 318.75493,280.8019 397.26269,236.92018 485.1279,205.18528 l 0.11499,-1.54082 c -26.50225,-7.11929 -50.65911,-10.31987 -72.76553,-10.14214 z"
         style="fill:url(#linearGradient3196);fill-opacity:1;stroke:none"
         inkscape:connector-curvature="0" />
      <path
         id="path3015"
         d="m 424.64328,161.5582 c -2.62976,0.007 -5.29012,0.0199 -7.9573,0.0692 128.26209,6.8093 195.82982,91.28738 239.5467,206.31461 l 17.08748,17.11048 72.19058,4.69159 c -6.02008,-3.42983 -12.39335,-6.72004 -9.75113,-13.61479 C 680.3491,247.24976 588.81242,161.28701 424.64328,161.55835 z"
         style="fill:url(#linearGradient3193);fill-opacity:1;stroke:none"
         inkscape:connector-curvature="0" />
      <path
         inkscape:connector-curvature="0"
         id="path3017"
         d="m 643.58844,401.50473 83.26149,2.49865 21.18708,-14.15902 -72.85381,-5.41368 z"
         style="fill:#1a1a1a;stroke:none" />
      <g
         transform="matrix(0.73593456,0,0,0.73593456,338.79191,-815.39493)"
         id="g4016">
        <g
           id="g3936">
          <path
             inkscape:connector-curvature="0"
             id="path3019"
             d="m 445.33985,1649.21 2.6628,13.2843 8.5863,-6.0609 -0.6066,-12.9884 z"
             style="fill:#333333;stroke:none"
             sodipodi:nodetypes="ccccc" />
          <path
             inkscape:connector-curvature="0"
             id="path3021"
             d="m 454.55378,1642.0164 2.54025,13.9119 72.2259,4.5457 -3.29043,-14.2226 z"
             style="fill:#999999;stroke:none"
             sodipodi:nodetypes="ccccc" />
        </g>
      </g>
      <path
         id="path3956"
         d="m 675.183,403.26671 c -12.4593,4.73559 -20.59554,11.62408 -27.13759,19.31828 7.82101,22.91663 15.00186,46.05132 11.15401,72.85752 9.73827,5.58744 20.86508,6.99027 32.5651,6.69237 7.93302,-31.86891 3.54697,-64.75665 -12.94785,-98.66116 l -3.63367,-0.20701 z"
         style="fill:#b3b3b3;fill-opacity:1;stroke:none"
         inkscape:connector-curvature="0" />
      <path
         style="fill:url(#radialGradient3184);fill-opacity:1;stroke:none"
         d="M 378.74264,556.23313 C 309.79339,453.92734 207.55213,487.66515 182.14298,543.61708 c -55.73136,92.79988 -83.143623,192.37999 -27.33471,312.24651 32.27811,60.25729 107.07361,85.93213 178.72696,21.02668 82.02549,-76.25761 73.61574,-276.80611 45.20741,-320.65714 z"
         id="path4061"
         inkscape:connector-curvature="0"
         sodipodi:nodetypes="ccccc" />
      <path
         sodipodi:nodetypes="ccccc"
         inkscape:connector-curvature="0"
         id="path2991"
         d="m 313.55987,624.56988 c -18.57359,-36.76059 -37.14718,-53.36666 -55.72076,-1.05135 -24.33334,50.03736 -36.85011,105.98296 -22.07804,175.57301 16.99233,32.21068 35.26289,47.16545 57.82343,4.20527 32.37407,-59.57566 22.24604,-119.15126 19.97537,-178.72693 z"
         style="fill:url(#radialGradient3181);fill-opacity:1;stroke:none" />
      <path
         style="fill:url(#linearGradient4056);fill-opacity:1;stroke:none"
         d="m 313.55987,624.56988 c -18.57359,-36.76059 -37.14718,-53.36666 -55.72076,-1.05135 -24.33334,50.03736 -36.85011,105.98296 -22.07804,175.57301 16.99233,32.21068 35.26289,47.16545 57.82343,4.20527 32.37407,-59.57566 22.24604,-119.15126 19.97537,-178.72693 z"
         id="path4071"
         inkscape:connector-curvature="0"
         sodipodi:nodetypes="ccccc" />
      <path
         id="path4101"
         d="m 598.94478,555.46717 c -17.87808,8.9723 -35.09495,21.41967 -51.99838,35.50884 -78.36062,85.77428 -125.35513,312.25814 -34.19796,420.77059 16.00411,14.8996 36.4171,24.0206 58.36881,28.5865 l -21.20411,-30.0813 C 486.48958,839.64153 488.97192,731.78252 591.53944,585.01951 l 7.40534,-29.55234 z"
         style="opacity:0.15909089;fill:url(#linearGradient3175);fill-opacity:1;stroke:none"
         inkscape:connector-curvature="0" />
      <path
         sodipodi:nodetypes="ccc"
         inkscape:connector-curvature="0"
         id="path3969"
         d="M 638.5159,1044.0797 C 479.77307,1036.2511 470.26094,589.41179 706.75919,556.23313 937.35957,529.97948 887.59706,1059.0141 638.5159,1044.0797 z"
         style="fill:#4d4d4d;fill-opacity:1;stroke:none" />
      <path
         sodipodi:nodetypes="ccc"
         inkscape:connector-curvature="0"
         id="path4091"
         d="M 638.5159,1044.0797 C 479.77307,1036.2511 470.26094,589.41179 706.75919,556.23313 937.35957,529.97948 887.59706,1059.0141 638.5159,1044.0797 z"
         style="fill:url(#linearGradient3171);fill-opacity:1;stroke:none" />
      <path
         style="fill:url(#radialGradient3168);fill-opacity:1;stroke:none"
         d="M 638.5159,1044.0797 C 479.77307,1036.2511 470.26094,589.41179 706.75919,556.23313 937.35957,529.97948 887.59706,1059.0141 638.5159,1044.0797 z"
         id="path2985"
         inkscape:connector-curvature="0"
         sodipodi:nodetypes="ccc" />
      <path
         sodipodi:nodetypes="ccc"
         inkscape:connector-curvature="0"
         id="path4115"
         d="M 644.05559,1044.0797 C 498.19878,1036.2511 489.4588,589.41179 706.75919,556.23313 918.64047,529.97948 872.91746,1059.0141 644.05559,1044.0797 z"
         style="opacity:1;fill:url(#linearGradient3157);fill-opacity:1;stroke:none" />
      <path
         sodipodi:nodetypes="ccccc"
         inkscape:connector-curvature="0"
         id="path3031"
         d="m 681.52715,658.21261 c 56.97478,-74.28449 109.4451,-92.71362 152.44358,6.30799 21.57232,94.88662 28.29482,191.16534 -38.89939,294.37383 -29.26287,42.42717 -63.12805,73.67727 -119.8522,49.41277 -57.6297,-78.6867 -59.39394,-192.92413 6.30801,-350.09459 z"
         style="opacity:0.39393939;fill:url(#linearGradient3147);fill-opacity:1;stroke:none" />
      <path
         style="fill:url(#linearGradient3144);fill-opacity:1;stroke:none"
         d="m 678.55353,662.67304 c 56.97478,-74.2845 109.44509,-92.71362 152.44358,6.30799 21.57231,94.88662 28.29485,191.16533 -38.8994,294.37382 -29.26287,42.42715 -63.12804,73.67725 -119.8522,49.41275 -57.6297,-78.68668 -59.39393,-192.92411 6.30802,-350.09456 z"
         id="path4125"
         inkscape:connector-curvature="0"
         sodipodi:nodetypes="ccccc" />
      <path
         transform="matrix(0.98094793,0.02196408,-0.10578311,0.74066809,392.49665,-837.35011)"
         sodipodi:open="true"
         sodipodi:end="6.0245709"
         sodipodi:start="0"
         d="m 672.85714,2208.7908 a 53.57143,135 0 1 1 -1.78151,-34.5251"
         sodipodi:ry="135"
         sodipodi:rx="53.57143"
         sodipodi:cy="2208.7908"
         sodipodi:cx="619.28571"
         id="path3033"
         style="fill:#000000;fill-opacity:1;stroke:none"
         sodipodi:type="arc" />
      <path
         sodipodi:type="arc"
         style="fill:#4d4d4d;fill-opacity:1;stroke:none"
         id="path4047"
         sodipodi:cx="619.28571"
         sodipodi:cy="2208.7908"
         sodipodi:rx="53.57143"
         sodipodi:ry="135"
         d="m 672.85714,2208.7908 a 53.57143,135 0 1 1 -1.78151,-34.5251"
         sodipodi:start="0"
         sodipodi:end="6.0245709"
         sodipodi:open="true"
         transform="matrix(0.84968061,0.01902492,-0.09162755,0.64155427,442.52103,-616.60825)" />
      <path
         transform="matrix(0.71474381,0,0,0.73593456,344.24995,-815.39493)"
         style="fill:#000000;stroke:none;filter:url(#filter3981)"
         d="m 437.13608,1803.5542 c -1.56428,45.4052 -8.8549,87.2314 -42.42641,112.632 -54.73978,85.3753 -110.93265,169.8474 -117.1777,285.3681 17.50931,7.4078 35.01863,8.0812 52.52794,2.0203 16.10902,-98.9291 36.72928,-197.3993 130.81475,-288.3986 64.39838,-59.2862 114.97189,-48.4605 160.61426,-12.6269 26.14551,29.8735 47.25784,62.8928 62.62945,99.5 -8.83314,-41.2479 -20.00424,-82.4957 -67.17514,-123.7436 -16.83191,-10.1219 -16.45511,-42.1457 -19.1929,-70.2056 l -118.69292,0 z"
         id="path3979"
         inkscape:connector-curvature="0"
         sodipodi:nodetypes="ccccccccccc" />
      <path
         sodipodi:nodetypes="ccccccccccc"
         inkscape:connector-curvature="0"
         id="path3025"
         d="m 657.34146,501.3896 c -1.15121,33.41525 -6.51663,64.1966 -31.22306,82.88978 -40.2849,62.83063 -81.63918,124.99657 -86.23512,210.01224 12.8857,5.45166 25.77142,5.94724 38.65712,1.48681 11.85519,-72.80534 27.03035,-145.27296 96.2711,-212.24249 47.39299,-43.63077 84.61179,-35.66376 118.20158,-9.29258 19.24139,21.98495 34.77868,46.28499 46.09118,73.22549 -6.50061,-30.35575 -14.72181,-60.71143 -49.43651,-91.06719 -12.38718,-7.44905 -12.10988,-31.01648 -14.12472,-51.66673 l -87.35022,0 z"
         style="fill:#4d4d4d;stroke:none" />
      <path
         style="fill:url(#radialGradient3163);fill-opacity:1;stroke:none"
         d="m 657.34146,501.3896 c -1.15121,33.41525 -6.51663,64.1966 -31.22306,82.88978 -40.2849,62.83063 -81.63918,124.99657 -86.23512,210.01224 12.8857,5.45166 25.77142,5.94724 38.65712,1.48681 11.85519,-72.80534 27.03035,-145.27296 96.2711,-212.24249 47.39299,-43.63077 84.61179,-35.66376 118.20158,-9.29258 19.24139,21.98495 34.77868,46.28499 46.09118,73.22549 -6.50061,-30.35575 -14.72181,-60.71143 -49.43651,-91.06719 -12.38718,-7.44905 -12.10988,-31.01648 -14.12472,-51.66673 l -87.35022,0 z"
         id="path3996"
         inkscape:connector-curvature="0"
         sodipodi:nodetypes="ccccccccccc" />
      <path
         sodipodi:nodetypes="ccccccccccc"
         inkscape:connector-curvature="0"
         id="path4006"
         d="m 657.34146,501.3896 c -1.15121,33.41525 -6.51663,64.1966 -31.22306,82.88978 -40.2849,62.83063 -81.63918,124.99657 -86.23512,210.01224 12.8857,5.45166 25.77142,5.94724 38.65712,1.48681 11.85519,-72.80534 27.03035,-145.27296 96.2711,-212.24249 47.39299,-43.63077 84.61179,-35.66376 118.20158,-9.29258 19.24139,21.98495 34.77868,46.28499 46.09118,73.22549 -6.50061,-30.35575 -14.72181,-60.71143 -49.43651,-91.06719 -12.38718,-7.44905 -12.10988,-31.01648 -14.12472,-51.66673 l -87.35022,0 z"
         style="fill:url(#linearGradient3160);fill-opacity:1;stroke:none" />
      <g
         transform="matrix(0.73593456,0,0,0.73593456,362.97262,-712.36409)"
         id="g4021">
        <g
           id="g4023">
          <path
             sodipodi:nodetypes="ccccc"
             style="fill:#333333;stroke:none"
             d="m 445.33985,1649.21 2.6628,13.2843 8.5863,-6.0609 -0.6066,-12.9884 z"
             id="path4025"
             inkscape:connector-curvature="0" />
          <path
             sodipodi:nodetypes="ccccc"
             style="fill:#999999;stroke:none"
             d="m 454.55378,1642.0164 2.54025,13.9119 72.2259,4.5457 -3.29043,-14.2226 z"
             id="path4027"
             inkscape:connector-curvature="0" />
        </g>
      </g>
      <path
         id="path3027"
         d="m 657.33658,501.39894 c -1.05897,30.738 -5.70039,59.22559 -25.66571,78.14713 5.99769,10.63558 14.90772,16.40177 39.41849,-3.81774 17.43655,-20.97075 17.73422,-45.37691 15.61561,-70.25871 l -4.92156,-1.42588 -24.44683,-2.6448 z"
         style="fill:url(#radialGradient4048);fill-opacity:1;stroke:none"
         inkscape:connector-curvature="0" />
      <path
         transform="matrix(0.7157848,0.0160269,-0.07718855,0.54045578,493.54711,-391.4462)"
         sodipodi:open="true"
         sodipodi:end="6.0245709"
         sodipodi:start="0"
         d="m 672.85714,2208.7908 a 53.57143,135 0 1 1 -1.78151,-34.5251"
         sodipodi:ry="135"
         sodipodi:rx="53.57143"
         sodipodi:cy="2208.7908"
         sodipodi:cx="619.28571"
         id="path4049"
         style="fill:#000000;fill-opacity:1;stroke:none"
         sodipodi:type="arc" />
      <path
         sodipodi:type="arc"
         style="fill:url(#linearGradient4616);fill-opacity:1;stroke:none"
         id="path4051"
         sodipodi:cx="619.28571"
         sodipodi:cy="2208.7908"
         sodipodi:rx="53.57143"
         sodipodi:ry="135"
         d="m 672.85714,2208.7908 a 53.57143,135 0 1 1 -1.78151,-34.5251"
         sodipodi:start="0"
         sodipodi:end="6.0245709"
         sodipodi:open="true"
         transform="matrix(0.7157848,0.0160269,-0.07718855,0.54045578,493.54711,-391.4462)" />
      <path
         inkscape:connector-curvature="0"
         style="fill:url(#radialGradient4017);fill-opacity:1;stroke:none"
         d="m 178.01321,375.27816 c -13.06097,26.5467 -14.98018,51.32665 -15.06366,75.82429 l 21.54908,-0.78193 c -0.97649,-19.6942 0.78448,-39.54669 11.56797,-59.93267 0,0 -10.84291,-9.0701 -18.05339,-15.10969 z"
         id="path4009" />
      <path
         id="path2995"
         d="m 188.59227,453.51727 -24.12486,3.63361 c 0.95832,17.68988 2.41561,35.48029 -11.38399,50.71052 8.29843,2.62015 17.72778,2.18639 33.53102,-15.50062 l 1.97783,-38.84351 z"
         style="fill:url(#radialGradient4025);fill-opacity:1;stroke:none"
         inkscape:connector-curvature="0" />
      <path
         style="fill:url(#radialGradient4030);fill-opacity:1;stroke:none"
         d="m 182.40582,359.63344 19.97536,15.77005 81.47847,5.78231 c 34.92058,-100.43122 113.47089,-144.30544 201.38327,-176.04357 77.22419,33.44808 124.59157,106.25283 158.34552,197.00262 l 31.96646,-15.61153 72.1104,4.46043 c -6.49898,-3.94241 -14.85541,-7.14173 -11.8945,-14.86809 C 676.66626,238.65419 576.44541,150.00829 390.83034,162.76807 c -88.71382,25.01184 -154.62368,83.53152 -194.77242,179.90429 -1.97316,9.94961 -5.75298,16.88808 -13.6521,16.96108 z"
         id="path4028"
         inkscape:connector-curvature="0"
         sodipodi:nodetypes="ccccccccccc" />
      <path
         inkscape:connector-curvature="0"
         style="fill:url(#radialGradient4040);fill-opacity:1;stroke:none"
         d="m 675.183,403.26671 c -12.4593,4.73559 -20.59554,11.62408 -27.13759,19.31828 7.82101,22.91663 15.00186,46.05132 11.15401,72.85752 9.73827,5.58744 20.86508,6.99027 32.5651,6.69237 7.93302,-31.86891 3.54697,-64.75665 -12.94785,-98.66116 l -3.63367,-0.20701 z"
         id="path4032" />
    </g>
  </g>
</svg>
